<svg id="Calque_1" xmlns="http://www.w3.org/2000/svg" version="1.1" xmlns:xlink="http://www.w3.org/1999/xlink" viewBox="0 0 180 56">
  <!-- Generator: Adobe Illustrator 29.4.0, SVG Export Plug-In . SVG Version: 2.1.0 Build 152)  -->
  <defs>
    <style>
      .loader-logo-opacity {
        opacity: .2;
      }

      .loader-logo-rect {
        clip-path: url(#clippath);
      }
    </style>
    <clipPath id="clippath">
      <path fill="none" d="M143.5,1.24c-13.8,0-24.98,12.16-24.98,27.15s11.18,27.15,24.98,27.15,24.98-12.16,24.98-27.15S157.3,1.24,143.5,1.24ZM155.97,48.86c-3.48,2-11.68-5.68-18.32-17.17-6.65-11.49-9.21-22.43-5.73-24.44,3.48-2.01,11.69,5.68,18.33,17.17,6.64,11.49,9.21,22.43,5.72,24.44ZM93.42,1.22c-11.87,0-21.49,5.06-21.49,17.05v37.27h19.69c-.02-8.31-2.17-14.78-6.24-22.04l-2.4-4.28c-.54-1,.43-2.22,1.57-2.22h9.02c.92,0,1.66.74,1.66,1.67v26.88h19.67V18.28c0-11.99-9.62-17.05-21.48-17.05ZM95.23,22.5c0,.86-.72,1.56-1.6,1.56h-9.7c-2.34,0-4.32-1.7-4.62-3.97-.04-.48-.06-.94-.06-1.41,0-8.41,5.97-14.88,14.77-14.88.67,0,1.21.53,1.21,1.18v17.51ZM48.56,39.83v15.72h19.75v-31.43c-10.91,0-19.75,4.82-19.75,15.72h0ZM48.56,17.3v6.7h3.65c8.89,0,16.1-7.2,16.1-16.08V1.22h-3.65c-8.89,0-16.1,7.2-16.1,16.08ZM26.35,1.26C8.09,1.26.39,13.4.39,28.4c-.1,24.19,28.5,36.52,44.54,18.68-6.23,2.86-16.24-3.61-22.74-14.86-7.01-12.34-7.84-26.44,1.65-28.34.71-.1,1.35.47,1.35,1.19v2.9c-.01,8.79,7.15,16.08,16.1,16.08h3.65v-6.7c0-8.67-9.66-16.1-18.59-16.08ZM175.63,52.23l3.86-2.76v2.24l-2.32,1.61.68.47h1.64v1.76h-7.37v-1.76h2.8l-2.8-1.85v-2.19l3.51,2.47ZM175.81,42.04c2.04,0,3.8,1.35,3.8,3.52s-1.74,3.51-3.8,3.51-3.8-1.35-3.8-3.51,1.77-3.52,3.8-3.52ZM175.81,43.86c-1.22,0-2.03.66-2.03,1.71s.82,1.7,2.03,1.7,2.04-.65,2.04-1.7-.82-1.71-2.04-1.71ZM172.12,35.75v-1.66h7.37v1.77h-3.83l3.11,1.92-3.11,1.91h3.83v1.77h-7.37v-1.65l3.29-2.03-3.29-2.03h0ZM177.33,27.56c1.15,0,2.16.88,2.16,2.58v3.17h-7.37v-3.18c0-1.33.78-2.38,2.09-2.38.6,0,1.1.24,1.48.66.42-.57.99-.85,1.63-.85ZM174.94,31.54v-1.06c0-.68-.13-.96-.55-.96-.3,0-.5.19-.5.66v1.37h1.05ZM177.14,29.32c-.41,0-.63.34-.63.79v1.42h1.21v-1.35c0-.55-.19-.86-.58-.86ZM172.12,22.98v-1.77h4.75c1.64,0,2.73,1.29,2.73,2.88s-1.1,2.88-2.73,2.88h-4.75v-1.77h4.75c.71,0,.96-.58.96-1.11s-.26-1.11-.96-1.11h-4.75ZM175.81,18.81c.97,0,2.04-.49,2.04-1.71s-1.05-1.53-1.05-1.53l.71-1.66s2.11.81,2.11,3.19c0,2.05-1.63,3.52-3.8,3.52s-3.8-1.47-3.8-3.52c0-2.38,2.11-3.19,2.11-3.19l.71,1.66s-1.05.32-1.05,1.53,1.06,1.71,2.03,1.71h0ZM172.12,9.35v-1.77h7.37v1.77h-2.8v2.22h2.8v1.77h-7.37v-1.77h2.8v-2.22h-2.8ZM172.12,4.81v-2.04l7.37-2.32v1.84l-1.44.41v2.18l1.44.41v1.84l-7.37-2.32ZM176.57,3.13l-2.3.66,2.3.67v-1.33Z"/>
    </clipPath>
  </defs>
  <path fill="currentColor" class="loader-logo-opacity" d="M143.5,1.24c-13.8,0-24.98,12.16-24.98,27.15s11.18,27.15,24.98,27.15,24.98-12.16,24.98-27.15S157.3,1.24,143.5,1.24ZM155.97,48.86c-3.48,2-11.68-5.68-18.32-17.17-6.65-11.49-9.21-22.43-5.73-24.44,3.48-2.01,11.69,5.68,18.33,17.17,6.64,11.49,9.21,22.43,5.72,24.44ZM93.42,1.22c-11.87,0-21.49,5.06-21.49,17.05v37.27h19.69c-.02-8.31-2.17-14.78-6.24-22.04l-2.4-4.28c-.54-1,.43-2.22,1.57-2.22h9.02c.92,0,1.66.74,1.66,1.67v26.88h19.67V18.28c0-11.99-9.62-17.05-21.48-17.05ZM95.23,22.5c0,.86-.72,1.56-1.6,1.56h-9.7c-2.34,0-4.32-1.7-4.62-3.97-.04-.48-.06-.94-.06-1.41,0-8.41,5.97-14.88,14.77-14.88.67,0,1.21.53,1.21,1.18v17.51ZM48.56,39.83v15.72h19.75v-31.43c-10.91,0-19.75,4.82-19.75,15.72h0ZM48.56,17.3v6.7h3.65c8.89,0,16.1-7.2,16.1-16.08V1.22h-3.65c-8.89,0-16.1,7.2-16.1,16.08ZM26.35,1.26C8.09,1.26.39,13.4.39,28.4c-.1,24.19,28.5,36.52,44.54,18.68-6.23,2.86-16.24-3.61-22.74-14.86-7.01-12.34-7.84-26.44,1.65-28.34.71-.1,1.35.47,1.35,1.19v2.9c-.01,8.79,7.15,16.08,16.1,16.08h3.65v-6.7c0-8.67-9.66-16.1-18.59-16.08ZM175.63,52.23l3.86-2.76v2.24l-2.32,1.61.68.47h1.64v1.76h-7.37v-1.76h2.8l-2.8-1.85v-2.19l3.51,2.47ZM175.81,42.04c2.04,0,3.8,1.35,3.8,3.52s-1.74,3.51-3.8,3.51-3.8-1.35-3.8-3.51,1.77-3.52,3.8-3.52ZM175.81,43.86c-1.22,0-2.03.66-2.03,1.71s.82,1.7,2.03,1.7,2.04-.65,2.04-1.7-.82-1.71-2.04-1.71ZM172.12,35.75v-1.66h7.37v1.77h-3.83l3.11,1.92-3.11,1.91h3.83v1.77h-7.37v-1.65l3.29-2.03-3.29-2.03h0ZM177.33,27.56c1.15,0,2.16.88,2.16,2.58v3.17h-7.37v-3.18c0-1.33.78-2.38,2.09-2.38.6,0,1.1.24,1.48.66.42-.57.99-.85,1.63-.85ZM174.94,31.54v-1.06c0-.68-.13-.96-.55-.96-.3,0-.5.19-.5.66v1.37h1.05ZM177.14,29.32c-.41,0-.63.34-.63.79v1.42h1.21v-1.35c0-.55-.19-.86-.58-.86ZM172.12,22.98v-1.77h4.75c1.64,0,2.73,1.29,2.73,2.88s-1.1,2.88-2.73,2.88h-4.75v-1.77h4.75c.71,0,.96-.58.96-1.11s-.26-1.11-.96-1.11h-4.75ZM175.81,18.81c.97,0,2.04-.49,2.04-1.71s-1.05-1.53-1.05-1.53l.71-1.66s2.11.81,2.11,3.19c0,2.05-1.63,3.52-3.8,3.52s-3.8-1.47-3.8-3.52c0-2.38,2.11-3.19,2.11-3.19l.71,1.66s-1.05.32-1.05,1.53,1.06,1.71,2.03,1.71h0ZM172.12,9.35v-1.77h7.37v1.77h-2.8v2.22h2.8v1.77h-7.37v-1.77h2.8v-2.22h-2.8ZM172.12,4.81v-2.04l7.37-2.32v1.84l-1.44.41v2.18l1.44.41v1.84l-7.37-2.32ZM176.57,3.13l-2.3.66,2.3.67v-1.33Z"/>
  <g class="loader-logo-rect">
    <rect fill="currentColor" y="56" width="180" height="55.93"/>
  </g>
</svg>