<svg width="100%" height="100%" viewBox="0 0 449 138" fill="none" xmlns="http://www.w3.org/2000/svg">
<path d="M357.91 1.98047C323.4 1.98047 295.43 32.4205 295.43 69.9705C295.43 107.52 323.4 137.97 357.91 137.97C392.42 137.97 420.39 107.53 420.39 69.9705C420.39 32.4105 392.42 1.98047 357.91 1.98047ZM389.09 121.24C380.39 126.26 359.87 107.01 343.26 78.2405C326.64 49.4705 320.23 22.0705 328.94 17.0505C337.64 12.0205 358.17 31.2705 374.78 60.0405C391.39 88.8105 397.8 116.21 389.09 121.24Z" fill="currentColor"/>
<path d="M232.66 1.9502C202.98 1.9502 178.92 14.6302 178.92 44.6502V137.97H228.16C228.1 117.15 222.73 100.96 212.55 82.7802L206.54 72.0502C205.2 69.5502 207.61 66.5002 210.47 66.5002H233.03C235.32 66.5002 237.18 68.3602 237.18 70.6702V137.97H286.38V44.6502C286.38 14.6302 262.32 1.9502 232.66 1.9502ZM237.18 55.2302C237.18 57.3902 235.39 59.1402 233.18 59.1402H208.92C203.07 59.1402 198.12 54.8902 197.37 49.2002C197.27 48.0102 197.21 46.8402 197.21 45.6702C197.21 24.6202 212.13 8.4102 234.15 8.4102C235.82 8.4102 237.18 9.7302 237.18 11.3702V55.2302Z" fill="currentColor"/>
<path d="M120.47 98.6098V137.97H169.87V59.2598C142.59 59.2598 120.47 71.3298 120.47 98.6198V98.6098Z" fill="currentColor"/>
<path d="M120.47 42.2102V59.0002H129.61C151.85 59.0002 169.87 40.9702 169.87 18.7402V1.9502H160.73C138.49 1.9502 120.47 19.9802 120.47 42.2102Z" fill="currentColor"/>
<path d="M64.9099 2.03034C19.2599 2.03034 -7.87477e-05 32.4503 -7.87477e-05 70.0003C-0.250079 130.57 71.2699 161.44 111.39 116.77C95.7999 123.92 70.7699 107.73 54.5099 79.5703C36.9799 48.6803 34.8999 13.3703 58.6399 8.59034C60.4199 8.33034 62.0099 9.77034 62.0099 11.5703V18.8303C61.9799 40.8503 79.8899 59.1003 102.27 59.0903H111.41V42.3003C111.41 20.5803 87.2399 1.99034 64.9099 2.03034Z" fill="currentColor"/>
<path d="M438.25 129.66L447.9 122.76V128.36L442.1 132.39L443.8 133.57H447.9V137.99H429.48V133.57H436.48L429.48 128.95V123.47L438.25 129.66Z" fill="currentColor"/>
<path d="M438.7 104.16C443.79 104.16 448.21 107.55 448.21 112.98C448.21 118.41 443.86 121.77 438.7 121.77C433.54 121.77 429.19 118.4 429.19 112.98C429.19 107.56 433.61 104.16 438.7 104.16ZM438.7 108.71C435.65 108.71 433.62 110.36 433.62 112.98C433.62 115.6 435.66 117.23 438.7 117.23C441.74 117.23 443.79 115.61 443.79 112.98C443.79 110.35 441.75 108.71 438.7 108.71Z" fill="currentColor"/>
<path d="M429.48 88.3902V84.2402H447.9V88.6602H438.32L446.11 93.4702L438.32 98.2602H447.9V102.68H429.48V98.5502L437.71 93.4602L429.48 88.3802V88.3902Z" fill="currentColor"/>
<path d="M442.5 67.8799C445.37 67.8799 447.9 70.0899 447.9 74.3399V82.2799H429.48V74.3199C429.48 70.9799 431.42 68.3699 434.71 68.3699C436.21 68.3699 437.46 68.9599 438.42 70.0199C439.48 68.5999 440.9 67.8799 442.5 67.8799ZM436.53 77.8499V75.1999C436.53 73.4999 436.21 72.7899 435.15 72.7899C434.39 72.7899 433.9 73.2599 433.9 74.4399V77.8599H436.53V77.8499ZM442.04 72.2999C441.01 72.2999 440.47 73.1399 440.47 74.2899V77.8499H443.49V74.4599C443.49 73.0799 443.02 72.2999 442.04 72.2999Z" fill="currentColor"/>
<path d="M429.48 56.4298V52.0098H441.37C445.47 52.0098 448.2 55.2298 448.2 59.2098C448.2 63.1898 445.45 66.4098 441.37 66.4098H429.48V61.9898H441.37C443.14 61.9898 443.78 60.5398 443.78 59.2098C443.78 57.8798 443.14 56.4298 441.37 56.4298H429.48Z" fill="currentColor"/>
<path d="M438.7 45.9902C441.13 45.9902 443.79 44.7602 443.79 41.7202C443.79 38.6802 441.16 37.8902 441.16 37.8902L442.93 33.7402C442.93 33.7402 448.21 35.7802 448.21 41.7202C448.21 46.8502 444.13 50.5402 438.7 50.5402C433.27 50.5402 429.19 46.8502 429.19 41.7202C429.19 35.7702 434.47 33.7402 434.47 33.7402L436.24 37.8902C436.24 37.8902 433.61 38.7002 433.61 41.7202C433.61 44.7402 436.26 45.9902 438.69 45.9902H438.7Z" fill="currentColor"/>
<path d="M429.48 22.2804V17.8604H447.9V22.2804H440.9V27.8304H447.9V32.2504H429.48V27.8304H436.48V22.2804H429.48Z" fill="currentColor"/>
<path d="M429.48 10.93V5.82L447.9 0V4.62L444.29 5.65V11.1L447.9 12.13V16.75L429.48 10.93ZM440.61 6.73L434.86 8.38L440.61 10.05V6.73Z" fill="currentColor"/>
</svg>